<?xml version="1.0" encoding="iso-8859-1"?>
<!-- Generator: Adobe Illustrator 19.0.0, SVG Export Plug-In . SVG Version: 6.00 Build 0)  -->
<svg version="1.1" id="Capa_1" xmlns="http://www.w3.org/2000/svg" xmlns:xlink="http://www.w3.org/1999/xlink" x="0px" y="0px"
	 viewBox="0 0 512 512" style="enable-background:new 0 0 512 512;" xml:space="preserve">
<g>
	<g>
		<path d="M406,160c-5.52,0-10,4.48-10,10s4.48,10,10,10c5.52,0,10-4.48,10-10S411.52,160,406,160z"/>
	</g>
</g>
<g>
	<g>
		<path d="M366,160c-5.52,0-10,4.48-10,10s4.48,10,10,10c5.52,0,10-4.48,10-10S371.52,160,366,160z"/>
	</g>
</g>
<g>
	<g>
		<path d="M146,160c-5.52,0-10,4.48-10,10s4.48,10,10,10s10-4.48,10-10S151.52,160,146,160z"/>
	</g>
</g>
<g>
	<g>
		<path d="M106,160c-5.52,0-10,4.48-10,10s4.48,10,10,10s10-4.48,10-10S111.52,160,106,160z"/>
	</g>
</g>
<g>
	<g>
		<path d="M466,0H46C29.458,0,16,13.458,16,30v452c0,16.542,13.458,30,30,30h420c16.542,0,30-13.458,30-30V30
			C496,13.458,482.542,0,466,0z M476,482c0,5.514-4.486,10-10,10H46c-5.514,0-10-4.486-10-10V140h440V482z M476,120H36V30
			c0-5.514,4.486-10,10-10h420c5.514,0,10,4.486,10,10V120z"/>
	</g>
</g>
<g>
	<g>
		<path d="M127.21,274.789c-3.219-3.219-7.042-5.614-11.21-7.085V230c0-5.523-4.478-10-10-10c-5.522,0-10,4.477-10,10v37.72
			c-11.639,4.128-20,15.243-20,28.28v20c0,13.036,8.361,24.152,20,28.28V442c0,5.523,4.478,10,10,10c5.522,0,10-4.477,10-10v-97.72
			c11.639-4.128,20-15.243,20-28.28v-20C136,287.99,132.879,280.457,127.21,274.789z M116,316c0,5.514-4.486,10-10,10
			s-10-4.486-10-10v-20c0-5.514,4.486-10,10-10c2.668,0,5.179,1.041,7.068,2.931c1.891,1.89,2.932,4.401,2.932,7.069V316z"/>
	</g>
</g>
<g>
	<g>
		<path d="M227.21,334.789c-3.219-3.219-7.042-5.614-11.21-7.085V230c0-5.523-4.478-10-10-10c-5.522,0-10,4.477-10,10v97.72
			c-11.639,4.128-20,15.243-20,28.28v20c0,13.036,8.361,24.152,20,28.28V442c0,5.523,4.478,10,10,10c5.522,0,10-4.477,10-10v-37.72
			c11.639-4.128,20-15.243,20-28.28v-20C236,347.99,232.879,340.457,227.21,334.789z M216,376c0,5.514-4.486,10-10,10
			c-5.514,0-10-4.486-10-10v-20c0-5.514,4.486-10,10-10c2.668,0,5.179,1.041,7.068,2.931c1.891,1.89,2.932,4.401,2.932,7.069V376z"
			/>
	</g>
</g>
<g>
	<g>
		<path d="M327.21,294.789c-3.22-3.22-7.042-5.615-11.21-7.085V230c0-5.523-4.478-10-10-10c-5.522,0-10,4.477-10,10v57.72
			c-11.639,4.128-20,15.243-20,28.28v20c0,13.036,8.361,24.152,20,28.28V442c0,5.523,4.478,10,10,10c5.522,0,10-4.477,10-10v-77.72
			c11.639-4.128,20-15.243,20-28.28v-20C336,307.99,332.879,300.457,327.21,294.789z M316,336c0,5.514-4.486,10-10,10
			c-5.514,0-10-4.486-10-10v-20c0-5.514,4.486-10,10-10c2.668,0,5.179,1.041,7.068,2.931c1.891,1.89,2.932,4.401,2.932,7.069V336z"
			/>
	</g>
</g>
<g>
	<g>
		<path d="M427.21,274.789c-3.219-3.219-7.042-5.614-11.21-7.085V230c0-5.523-4.478-10-10-10c-5.522,0-10,4.477-10,10v37.72
			c-11.639,4.128-20,15.243-20,28.28v20c0,13.036,8.361,24.152,20,28.28V442c0,5.523,4.478,10,10,10c5.522,0,10-4.477,10-10v-97.72
			c11.639-4.128,20-15.243,20-28.28v-20C436,287.99,432.879,280.457,427.21,274.789z M416,316c0,5.514-4.486,10-10,10
			c-5.514,0-10-4.486-10-10v-20c0-5.514,4.486-10,10-10c2.668,0,5.179,1.041,7.068,2.931c1.891,1.89,2.932,4.401,2.932,7.069V316z"
			/>
	</g>
</g>
<g>
	<g>
		<path d="M326,160H186c-5.522,0-10,4.477-10,10s4.478,10,10,10h140c5.522,0,10-4.477,10-10S331.522,160,326,160z"/>
	</g>
</g>
<g>
	<g>
		<path d="M106,40c-16.542,0-30,13.458-30,30s13.458,30,30,30s30-13.458,30-30S122.542,40,106,40z M106,80c-5.514,0-10-4.486-10-10
			s4.486-10,10-10s10,4.486,10,10S111.514,80,106,80z"/>
	</g>
</g>
<g>
	<g>
		<path d="M186,40c-16.542,0-30,13.458-30,30s13.458,30,30,30s30-13.458,30-30S202.542,40,186,40z M186,80c-5.514,0-10-4.486-10-10
			s4.486-10,10-10c5.514,0,10,4.486,10,10S191.514,80,186,80z"/>
	</g>
</g>
<g>
	<g>
		<path d="M266,40c-16.542,0-30,13.458-30,30s13.458,30,30,30s30-13.458,30-30S282.542,40,266,40z M266,80c-5.514,0-10-4.486-10-10
			s4.486-10,10-10c5.514,0,10,4.486,10,10S271.514,80,266,80z"/>
	</g>
</g>
<g>
	<g>
		<path d="M406,40h-60c-16.575,0-30,13.424-30,30c0,16.542,13.458,30,30,30h60c16.575,0,30-13.424,30-30
			C436,53.458,422.542,40,406,40z M406,80h-60c-5.514,0-10-4.486-10-10c0-5.522,4.479-10,10-10h60c5.514,0,10,4.486,10,10
			C416,75.522,411.521,80,406,80z"/>
	</g>
</g>
<g>
</g>
<g>
</g>
<g>
</g>
<g>
</g>
<g>
</g>
<g>
</g>
<g>
</g>
<g>
</g>
<g>
</g>
<g>
</g>
<g>
</g>
<g>
</g>
<g>
</g>
<g>
</g>
<g>
</g>
</svg>
