<svg id="Layer_1" height="512" viewBox="0 0 512 512" width="512" xmlns="http://www.w3.org/2000/svg" data-name="Layer 1"><path d="m351.329 216.5a41.583 41.583 0 1 0 24.124 20.76 41.311 41.311 0 0 0 -24.124-20.76zm15.1 48.747a29.625 29.625 0 1 1 -18.851-37.347 29.622 29.622 0 0 1 18.855 37.347z"/><path d="m391.038 95.824a169.254 169.254 0 0 0 -38.574-7.891v-14.811a6 6 0 0 0 -6-6h-335.464a6 6 0 0 0 -6 6v365.756a6 6 0 0 0 6 6h335.464a6 6 0 0 0 6-6v-14.806a168.682 168.682 0 0 0 146.043-115.364c29.063-88.322-19.148-183.821-107.469-212.884zm-50.574 337.054h-231.964v-265.267a6 6 0 0 0 -12 0v265.267h-28.832v-132.812a6 6 0 0 0 -12 0v132.812h-38.668v-353.756h38.668v173.392a6 6 0 0 0 12 0v-173.392h28.832v40.937a6 6 0 0 0 12 0v-40.937h231.964v109.978a67.024 67.024 0 0 0 0 133.8zm146.644-127.921a156.665 156.665 0 0 1 -134.644 107.065v-28.822a127.767 127.767 0 0 0 107.424-87.2 6 6 0 0 0 -11.4-3.751 115.8 115.8 0 0 1 -96.025 78.881v-20.73a95.432 95.432 0 0 0 76.528-64.564 6 6 0 1 0 -11.4-3.751 83.445 83.445 0 0 1 -65.13 56.171v-21.272a6 6 0 0 0 -6.2-6 55.017 55.017 0 1 1 -.981-110l1.018.028a6 6 0 0 0 6.164-6v-21.256a84.364 84.364 0 0 1 11.949 2.981 6 6 0 0 0 3.751-11.4 96.314 96.314 0 0 0 -15.7-3.742v-20.712a116.887 116.887 0 0 1 22.116 4.958 6 6 0 0 0 3.75-11.4 128.728 128.728 0 0 0 -25.866-5.638v-28.811a157.385 157.385 0 0 1 34.823 7.23c82.038 26.995 126.815 115.698 99.823 197.735z"/><path d="m344.973 235.814a21.252 21.252 0 1 0 13.543 26.828 21.275 21.275 0 0 0 -13.543-26.828zm2.145 23.077a9.263 9.263 0 1 1 -5.9-11.678 9.262 9.262 0 0 1 5.9 11.678z"/><path d="m102.5 131.839a6 6 0 0 0 -6 6v8.651a6 6 0 0 0 12 0v-8.651a6 6 0 0 0 -6-6z"/><path d="m282.657 350.192h-132.127a6 6 0 1 0 0 12h132.127a6 6 0 0 0 0-12z"/><path d="m221.656 390.859h-71.126a6 6 0 0 0 0 12h71.126a6 6 0 0 0 0-12z"/><path d="m61.668 267.635a6 6 0 0 0 -6 6v8.651a6 6 0 0 0 12 0v-8.651a6 6 0 0 0 -6-6z"/></svg>