<?xml version="1.0" encoding="iso-8859-1"?>
<!-- Generator: Adobe Illustrator 19.0.0, SVG Export Plug-In . SVG Version: 6.00 Build 0)  -->
<svg version="1.1" id="Capa_1" xmlns="http://www.w3.org/2000/svg" xmlns:xlink="http://www.w3.org/1999/xlink" x="0px" y="0px"
	 viewBox="0 0 512.001 512.001" style="enable-background:new 0 0 512.001 512.001;" xml:space="preserve">
<g>
	<g>
		<path d="M497.339,190.412c0-10.7,4.167-20.759,11.733-28.325c3.905-3.905,3.905-10.237,0-14.143l-37.111-37.111
			c-1.875-1.875-4.419-2.929-7.071-2.929c-2.652,0-5.196,1.054-7.071,2.929c-7.566,7.566-17.625,11.733-28.325,11.733
			s-20.759-4.167-28.325-11.733c-15.619-15.618-15.619-41.031,0-56.649c3.905-3.905,3.905-10.237,0-14.142L364.057,2.93
			c-3.905-3.905-10.237-3.904-14.142,0c-7.566,7.566-17.626,11.733-28.325,11.733c-10.7,0-20.759-4.167-28.325-11.733
			c-3.905-3.905-10.237-3.905-14.142,0L2.929,279.123C1.054,280.998,0,283.542,0,286.194c0,2.652,1.054,5.196,2.929,7.071
			c7.566,7.566,11.733,17.625,11.733,28.325s-4.167,20.759-11.733,28.325c-3.905,3.905-3.905,10.237,0,14.143l37.111,37.111
			c3.906,3.905,10.238,3.905,14.142,0c7.566-7.565,17.625-11.732,28.326-11.732s20.76,4.167,28.325,11.732
			c7.566,7.566,11.733,17.626,11.733,28.325c0,10.7-4.167,20.759-11.733,28.325c-1.875,1.875-2.929,4.419-2.929,7.071
			c0,2.652,1.054,5.196,2.929,7.071l37.111,37.11c1.953,1.953,4.511,2.929,7.071,2.929c2.559,0,5.119-0.977,7.071-2.929
			c7.566-7.565,17.626-11.732,28.325-11.732s20.758,4.167,28.324,11.732c3.905,3.905,10.237,3.905,14.143,0l276.193-276.192
			c1.875-1.876,2.929-4.419,2.929-7.071s-1.054-5.196-2.929-7.071C501.506,211.172,497.339,201.112,497.339,190.412z
			 M225.224,488.441c-10.097-7.212-22.156-11.101-34.813-11.101s-24.716,3.889-34.814,11.102l-24.134-24.133
			c7.212-10.097,11.102-22.157,11.102-34.814c0-16.042-6.247-31.124-17.591-42.468c-11.343-11.343-26.425-17.59-42.467-17.59
			c-12.657,0-24.717,3.889-34.814,11.102L23.56,356.404c7.212-10.097,11.102-22.156,11.102-34.814
			c0-12.658-3.889-24.717-11.102-34.814L286.776,23.561c10.097,7.213,22.156,11.102,34.813,11.102
			c12.657,0,24.716-3.889,34.813-11.102l24.14,24.141c-16.687,23.439-14.525,56.266,6.482,77.274
			c11.344,11.343,26.425,17.59,42.467,17.59c12.657,0,24.716-3.889,34.813-11.102l24.134,24.134
			c-7.212,10.097-11.102,22.157-11.102,34.814c0.003,12.658,3.891,24.717,11.104,34.814L225.224,488.441z"/>
	</g>
</g>
<g>
	<g>
		<path d="M459.703,218.737L293.265,52.298c-3.906-3.904-10.237-3.904-14.142,0L52.296,279.123
			c-1.875,1.876-2.929,4.419-2.929,7.071c0,2.652,1.054,5.196,2.929,7.071l166.439,166.439c1.953,1.953,4.512,2.929,7.071,2.929
			c2.559,0,5.119-0.977,7.071-2.929l226.826-226.825c1.875-1.876,2.929-4.419,2.929-7.071
			C462.632,223.156,461.578,220.612,459.703,218.737z M225.807,438.492L73.51,286.194L286.194,73.511l152.297,152.297
			L225.807,438.492z"/>
	</g>
</g>
<g>
	<g>
		<path d="M266.663,302.707l-20.143-15.441l-0.653-25.372c-0.094-3.666-2.189-6.988-5.457-8.653
			c-3.269-1.665-7.186-1.407-10.208,0.671l-20.909,14.385l-24.332-7.22c-3.517-1.043-7.322-0.078-9.915,2.516
			c-2.594,2.594-3.56,6.399-2.516,9.915l7.219,24.333l-14.384,20.909c-2.079,3.022-2.336,6.94-0.671,10.208
			c1.665,3.268,4.986,5.362,8.653,5.457l25.372,0.653l15.441,20.143c1.91,2.491,4.855,3.916,7.935,3.916
			c0.52,0,1.043-0.04,1.566-0.123c3.623-0.574,6.641-3.085,7.864-6.544l8.461-23.928l23.928-8.461
			c3.458-1.223,5.97-4.241,6.543-7.864C271.03,308.585,269.574,304.939,266.663,302.707z M228.815,311.268
			c-2.848,1.007-5.088,3.247-6.095,6.095l-3.906,11.047l-7.129-9.299c-1.838-2.397-4.66-3.835-7.679-3.913l-11.714-0.301
			l6.641-9.653c1.712-2.488,2.207-5.617,1.348-8.512l-3.333-11.234l11.234,3.333c2.895,0.858,6.024,0.363,8.513-1.348l9.653-6.641
			l0.301,11.713c0.078,3.019,1.516,5.841,3.913,7.679l9.299,7.129L228.815,311.268z"/>
	</g>
</g>
<g>
	<g>
		<path d="M338.479,173.523c-3.905-3.905-10.236-3.905-14.142,0l-49.499,49.499c-3.906,3.906-3.906,10.238,0,14.142
			c1.953,1.953,4.512,2.929,7.071,2.929c2.559,0,5.118-0.976,7.071-2.929l49.499-49.499
			C342.384,183.76,342.384,177.428,338.479,173.523z"/>
	</g>
</g>
<g>
	<g>
		<path d="M287.767,163.777c-3.906-3.905-10.237-3.905-14.143,0l-29.016,29.016c-3.905,3.905-3.905,10.237,0.001,14.142
			c1.953,1.952,4.512,2.929,7.071,2.929s5.119-0.977,7.071-2.929l29.016-29.016C291.672,174.014,291.672,167.682,287.767,163.777z"
			/>
	</g>
</g>
<g>
	<g>
		<path d="M308.272,143.317c-3.895-3.917-10.227-3.935-14.142-0.042l-0.168,0.167c-3.917,3.894-3.935,10.225-0.042,14.142
			c1.955,1.966,4.523,2.95,7.092,2.95c2.549,0,5.1-0.969,7.05-2.908l0.168-0.167C312.147,153.565,312.165,147.233,308.272,143.317z"
			/>
	</g>
</g>
<g>
	<g>
		<path d="M319.376,253.084c-3.906-3.905-10.237-3.905-14.142,0l-0.167,0.167c-3.905,3.905-3.905,10.237,0,14.142
			c1.953,1.953,4.512,2.929,7.071,2.929c2.559,0,5.118-0.977,7.071-2.929l0.167-0.167
			C323.281,263.321,323.281,256.989,319.376,253.084z"/>
	</g>
</g>
<g>
	<g>
		<path d="M368.707,203.752c-3.905-3.904-10.237-3.905-14.142,0.001l-29.016,29.016c-3.906,3.904-3.906,10.236,0,14.141
			c1.953,1.952,4.512,2.929,7.071,2.929c2.559,0,5.119-0.977,7.071-2.929l29.016-29.016
			C372.612,213.989,372.612,207.657,368.707,203.752z"/>
	</g>
</g>
<g>
</g>
<g>
</g>
<g>
</g>
<g>
</g>
<g>
</g>
<g>
</g>
<g>
</g>
<g>
</g>
<g>
</g>
<g>
</g>
<g>
</g>
<g>
</g>
<g>
</g>
<g>
</g>
<g>
</g>
</svg>
